<?xml version="1.0" encoding="UTF-8" standalone="no"?>
<svg xmlns="http://www.w3.org/2000/svg" width="24" height="24" viewBox="0 0 24 24">
  <rect x="2" y="5" width="20" height="2.2" rx="1.1" fill="#000000"/>
  <rect x="2" y="10.9" width="20" height="2.2" rx="1.1" fill="#000000"/>
  <rect x="2" y="16.8" width="20" height="2.2" rx="1.1" fill="#000000"/>
  <path d="M8.5 3.1a3 3 0 1 1 0 6 3 3 0 0 1 0-6z" fill="#000000"/>
  <path d="M15.5 9a3 3 0 1 1 0 6 3 3 0 0 1 0-6z" fill="#000000"/>
  <path d="M6.5 14.9a3 3 0 1 1 0 6 3 3 0 0 1 0-6z" fill="#000000"/>
</svg>
